<?xml version="1.0" encoding="utf-8"?><svg viewBox="0 0 35 35" xmlns="http://www.w3.org/2000/svg" xmlns:xlink="http://www.w3.org/1999/xlink"><style>:root>svg{display:none}:root>svg:target{display:block}</style><svg fill="none" viewBox="0 0 11 9" id="check" xmlns="http://www.w3.org/2000/svg"><path d="M10 .5 4.5 8 1 4" stroke="#C3242D" stroke-linecap="round" stroke-linejoin="round"/></svg><svg fill="none" viewBox="0 0 35 35" id="done" xmlns="http://www.w3.org/2000/svg"><rect width="35" height="35" rx="17.5" fill="#24A30A"/><path d="m8 17.81 8 6.69L27.5 12" stroke="#fff" stroke-width="3" stroke-linecap="round" stroke-linejoin="round"/></svg><svg fill="none" viewBox="0 0 35 35" id="error" xmlns="http://www.w3.org/2000/svg"><rect width="35" height="35" rx="17.5" fill="#DD3614"/><path d="M24.142 24.142 10 10M9.858 24.142 24 10" stroke="#fff" stroke-width="3" stroke-linecap="round" stroke-linejoin="round"/></svg><svg fill="none" viewBox="0 0 35 35" id="minus" xmlns="http://www.w3.org/2000/svg"><rect width="35" height="35" rx="17.5" fill="#C3242D"/><path d="M27.071 17.071h-20" stroke="#fff" stroke-width="3" stroke-linecap="round" stroke-linejoin="round"/></svg><svg fill="none" viewBox="0 0 30 24" id="photo" xmlns="http://www.w3.org/2000/svg"><g clip-path="url(#ea)" stroke="#fff" stroke-width="1.34" stroke-miterlimit="10"><path d="M29.369 4.07v17.343c0 1.063-.81 1.925-1.81 1.925H2.432c-.999 0-1.81-.852-1.81-1.925V4.07c0-1.063.811-1.925 1.81-1.925h1.847v-.892c0-.33.245-.591.556-.591H9.27c.311 0 .556.26.556.591v.892H27.55c.999 0 1.81.862 1.81 1.925h.009Z"/><path d="M15 19.288c3.398 0 6.153-2.93 6.153-6.546S18.398 6.195 15 6.195c-3.398 0-6.153 2.931-6.153 6.547 0 3.615 2.755 6.546 6.153 6.546Z"/></g><defs><clipPath id="ea"><path fill="#fff" d="M0 0h30v24H0z"/></clipPath></defs></svg><svg fill="none" viewBox="0 0 35 35" id="plus" xmlns="http://www.w3.org/2000/svg"><rect width="35" height="35" rx="17.5" fill="#C3242D"/><path d="M27.071 17.071h-20M16.929 27.071v-20" stroke="#fff" stroke-width="3" stroke-linecap="round" stroke-linejoin="round"/></svg><svg fill="none" viewBox="0 0 15 16" id="user" xmlns="http://www.w3.org/2000/svg"><g clip-path="url(#ga)"><path d="M14.84 6.773a7.294 7.294 0 0 0-2.612-4.182A7.623 7.623 0 0 0 7.5.955c-1.722 0-3.391.577-4.728 1.637A7.28 7.28 0 0 0 .16 6.773a7.174 7.174 0 0 0 .672 4.857 7.427 7.427 0 0 0 3.658 3.354c.187.08.399.082.588.006a.738.738 0 0 0 .412-.409l1.643-4.102a.722.722 0 0 0-.342-.912 1.48 1.48 0 0 1-.66-.699 1.449 1.449 0 0 1 .452-1.744 1.52 1.52 0 0 1 1.841 0c.264.2.45.48.532.797.082.316.054.649-.08.947a1.48 1.48 0 0 1-.66.7.728.728 0 0 0-.343.91l1.643 4.102a.74.74 0 0 0 .412.41c.188.076.4.074.587-.006a7.42 7.42 0 0 0 3.656-3.355 7.17 7.17 0 0 0 .672-4.856h-.002ZM7.5 2.42c1.378 0 2.713.462 3.783 1.309a5.83 5.83 0 0 1 2.09 3.345 5.735 5.735 0 0 1-.539 3.884 5.904 5.904 0 0 1-2.228 2.331L9.48 10.476a2.91 2.91 0 0 0 .764-1.02 2.863 2.863 0 0 0 .163-1.896 2.922 2.922 0 0 0-1.064-1.595A3.043 3.043 0 0 0 7.5 5.348a3.05 3.05 0 0 0-1.844.617c-.526.4-.9.963-1.064 1.595-.163.633-.106 1.3.162 1.895.178.393.44.741.765 1.02L4.393 13.29a5.908 5.908 0 0 1-2.23-2.331 5.736 5.736 0 0 1-.537-3.884 5.834 5.834 0 0 1 2.09-3.347 6.077 6.077 0 0 1 3.782-1.309" fill="#fff"/></g><defs><clipPath id="ga"><path fill="#fff" transform="translate(0 .955)" d="M0 0h15v14.091H0z"/></clipPath></defs></svg></svg>